<svg xmlns="http://www.w3.org/2000/svg" xmlns:xlink="http://www.w3.org/1999/xlink" width="500" zoomAndPan="magnify" viewBox="0 0 375 374.999991" height="500" preserveAspectRatio="xMidYMid meet" version="1.0"><defs><g/><clipPath id="9e54d93701"><path d="M 98 161 L 139.171875 161 L 139.171875 204 L 98 204 Z M 98 161 " clip-rule="nonzero"/></clipPath><clipPath id="608302c2cc"><path d="M 105 200 L 139.171875 200 L 139.171875 211 L 105 211 Z M 105 200 " clip-rule="nonzero"/></clipPath><clipPath id="a4813f65b2"><path d="M 57 128.414062 L 107 128.414062 L 107 186 L 57 186 Z M 57 128.414062 " clip-rule="nonzero"/></clipPath><clipPath id="bde2519750"><path d="M 74 209 L 107 209 L 107 243.164062 L 74 243.164062 Z M 74 209 " clip-rule="nonzero"/></clipPath><clipPath id="26ebc59601"><path d="M 61 236 L 74 236 L 74 243.164062 L 61 243.164062 Z M 61 236 " clip-rule="nonzero"/></clipPath><clipPath id="07a4afb75b"><path d="M 24.421875 161 L 99 161 L 99 241 L 24.421875 241 Z M 24.421875 161 " clip-rule="nonzero"/></clipPath></defs><g clip-path="url(#9e54d93701)"><path fill="#009846" d="M 107.449219 163.246094 C 108.105469 163.953125 108.484375 164.917969 108.410156 165.953125 C 108.289062 167.746094 107.082031 182.320312 99.871094 190.523438 L 98.710938 195.207031 C 99.792969 198.03125 101.128906 200.734375 102.699219 203.28125 C 103.011719 203.132812 103.324219 202.984375 103.636719 202.839844 C 114.761719 197.714844 126.921875 195.320312 139.042969 195.738281 L 139.042969 167.476562 C 139.042969 163.976562 136.195312 161.125 132.695312 161.125 L 107.445312 161.125 C 107.457031 161.828125 107.460938 162.535156 107.449219 163.246094 " fill-opacity="1" fill-rule="nonzero"/></g><g clip-path="url(#608302c2cc)"><path fill="#009846" d="M 139.042969 203.972656 L 139.042969 200.960938 C 127.636719 200.570312 116.074219 202.804688 105.800781 207.539062 C 105.761719 207.554688 105.722656 207.574219 105.6875 207.589844 C 106.421875 208.53125 107.191406 209.441406 107.988281 210.320312 L 132.695312 210.320312 C 136.195312 210.320312 139.042969 207.46875 139.042969 203.972656 " fill-opacity="1" fill-rule="nonzero"/></g><g clip-path="url(#a4813f65b2)"><path fill="#009846" d="M 61.179688 147.441406 L 63.136719 146.765625 C 63.546875 146.023438 64.21875 145.425781 65.078125 145.128906 L 67.890625 144.160156 C 69.742188 143.519531 71.769531 144.507812 72.410156 146.359375 C 73.050781 148.214844 72.0625 150.238281 70.210938 150.878906 L 67.398438 151.851562 C 66.480469 152.171875 65.515625 152.085938 64.703125 151.695312 L 62.867188 152.328125 C 61.828125 152.6875 61.03125 153.445312 60.621094 154.464844 C 60.210938 155.480469 60.257812 156.574219 60.753906 157.546875 C 62.988281 161.9375 66.527344 168.152344 71.125 173.867188 C 71.988281 173.953125 72.828125 174.34375 73.457031 175.042969 C 75.570312 177.378906 80.835938 182.320312 86.34375 185.074219 L 97.246094 181.304688 C 99.886719 175.734375 100.976562 168.601562 101.1875 165.460938 C 101.25 164.527344 101.667969 163.699219 102.296875 163.101562 C 102.382812 155.765625 101.332031 148.6875 100.382812 143.855469 C 100.167969 142.785156 99.53125 141.890625 98.585938 141.347656 C 97.632812 140.800781 96.535156 140.695312 95.5 141.058594 L 93.664062 141.691406 C 93.261719 142.5 92.558594 143.160156 91.636719 143.480469 L 88.828125 144.449219 C 86.972656 145.085938 84.945312 144.101562 84.308594 142.25 C 83.667969 140.394531 84.652344 138.371094 86.503906 137.730469 L 89.316406 136.757812 C 90.175781 136.460938 91.070312 136.519531 91.847656 136.84375 L 93.808594 136.167969 C 96.246094 135.324219 98.929688 135.582031 101.160156 136.863281 C 103.394531 138.148438 104.957031 140.332031 105.457031 142.859375 C 105.75 144.34375 106.046875 146.035156 106.324219 147.875 L 106.324219 134.757812 C 106.324219 131.261719 103.480469 128.414062 99.980469 128.414062 L 63.484375 128.414062 C 59.984375 128.414062 57.136719 131.261719 57.136719 134.757812 L 57.136719 150.292969 C 58.179688 148.992188 59.574219 147.996094 61.179688 147.441406 " fill-opacity="1" fill-rule="nonzero"/></g><g clip-path="url(#bde2519750)"><path fill="#862264" d="M 101 209.976562 C 90.074219 216.066406 80.613281 225.152344 74.070312 235.835938 C 75.074219 236.820312 75.878906 238.046875 76.367188 239.46875 C 76.777344 240.652344 76.933594 241.859375 76.867188 243.035156 L 99.980469 243.035156 C 103.480469 243.035156 106.324219 240.1875 106.324219 236.6875 L 106.324219 216.042969 C 104.414062 214.175781 102.632812 212.15625 101 209.976562 " fill-opacity="1" fill-rule="nonzero"/></g><g clip-path="url(#26ebc59601)"><path fill="#862264" d="M 67.496094 236.535156 C 64.179688 236.535156 61.492188 239.222656 61.492188 242.53125 C 61.492188 242.59375 61.5 242.652344 61.5 242.710938 C 62.109375 242.914062 62.753906 243.027344 63.425781 243.03125 C 63.195312 241.152344 64.296875 239.304688 66.15625 238.660156 C 68.292969 237.921875 70.628906 239.058594 71.371094 241.195312 C 71.582031 241.808594 71.632812 242.433594 71.558594 243.035156 L 73.46875 243.035156 C 73.484375 242.871094 73.496094 242.703125 73.496094 242.53125 C 73.496094 239.222656 70.808594 236.535156 67.496094 236.535156 " fill-opacity="1" fill-rule="nonzero"/></g><g clip-path="url(#07a4afb75b)"><path fill="#862264" d="M 58.355469 240.410156 C 59.066406 237.371094 61.269531 234.753906 64.429688 233.660156 C 66.128906 233.074219 67.878906 233.003906 69.519531 233.367188 C 76.449219 221.960938 86.484375 212.238281 98.097656 205.675781 C 96.429688 202.925781 95.011719 200.015625 93.855469 196.984375 L 93.839844 196.972656 L 89.960938 193.945312 C 79.226562 191.945312 69.28125 181.226562 68.078125 179.890625 C 67.382812 179.117188 67.082031 178.125 67.164062 177.164062 C 62.664062 171.59375 59.15625 165.648438 56.785156 161.125 L 30.769531 161.125 C 27.269531 161.125 24.421875 163.976562 24.421875 167.476562 L 24.421875 203.972656 C 24.421875 207.46875 27.269531 210.320312 30.769531 210.320312 L 57.136719 210.320312 L 57.136719 236.6875 C 57.136719 238.078125 57.59375 239.363281 58.355469 240.410156 " fill-opacity="1" fill-rule="nonzero"/></g><g fill="#2b2a29" fill-opacity="1"><g transform="translate(160.530918, 195.557754)"><g><path d="M 18.078125 -6.15625 C 19.109375 -6.15625 20.113281 -6.3125 21.09375 -6.625 C 22.070312 -6.9375 22.789062 -7.238281 23.25 -7.53125 L 23.9375 -8 L 26.84375 -2.203125 C 26.738281 -2.128906 26.601562 -2.03125 26.4375 -1.90625 C 26.269531 -1.789062 25.878906 -1.570312 25.265625 -1.25 C 24.648438 -0.925781 23.988281 -0.640625 23.28125 -0.390625 C 22.582031 -0.148438 21.664062 0.0625 20.53125 0.25 C 19.394531 0.445312 18.222656 0.546875 17.015625 0.546875 C 14.242188 0.546875 11.613281 -0.132812 9.125 -1.5 C 6.632812 -2.863281 4.628906 -4.738281 3.109375 -7.125 C 1.585938 -9.519531 0.828125 -12.109375 0.828125 -14.890625 C 0.828125 -16.984375 1.273438 -18.992188 2.171875 -20.921875 C 3.066406 -22.859375 4.253906 -24.515625 5.734375 -25.890625 C 7.222656 -27.265625 8.957031 -28.363281 10.9375 -29.1875 C 12.914062 -30.007812 14.941406 -30.421875 17.015625 -30.421875 C 18.953125 -30.421875 20.734375 -30.191406 22.359375 -29.734375 C 23.992188 -29.273438 25.148438 -28.816406 25.828125 -28.359375 L 26.84375 -27.671875 L 23.9375 -21.875 C 23.769531 -22.019531 23.515625 -22.191406 23.171875 -22.390625 C 22.835938 -22.597656 22.160156 -22.867188 21.140625 -23.203125 C 20.128906 -23.546875 19.109375 -23.71875 18.078125 -23.71875 C 16.429688 -23.71875 14.957031 -23.453125 13.65625 -22.921875 C 12.351562 -22.390625 11.320312 -21.6875 10.5625 -20.8125 C 9.800781 -19.945312 9.21875 -19.015625 8.8125 -18.015625 C 8.414062 -17.015625 8.21875 -15.992188 8.21875 -14.953125 C 8.21875 -12.679688 9.066406 -10.644531 10.765625 -8.84375 C 12.472656 -7.050781 14.910156 -6.15625 18.078125 -6.15625 Z M 18.078125 -6.15625 "/></g></g></g><g fill="#2b2a29" fill-opacity="1"><g transform="translate(188.123583, 195.557754)"><g><path d="M 2.171875 0 L 2.171875 -31.140625 L 8.578125 -31.140625 L 8.578125 0 Z M 2.171875 0 "/></g></g></g><g fill="#2b2a29" fill-opacity="1"><g transform="translate(199.204146, 195.557754)"><g><path d="M 2.78125 -28.9375 C 3.53125 -29.6875 4.425781 -30.0625 5.46875 -30.0625 C 6.507812 -30.0625 7.398438 -29.6875 8.140625 -28.9375 C 8.890625 -28.1875 9.265625 -27.289062 9.265625 -26.25 C 9.265625 -25.21875 8.890625 -24.328125 8.140625 -23.578125 C 7.398438 -22.828125 6.507812 -22.453125 5.46875 -22.453125 C 4.425781 -22.453125 3.53125 -22.828125 2.78125 -23.578125 C 2.039062 -24.328125 1.671875 -25.21875 1.671875 -26.25 C 1.671875 -27.289062 2.039062 -28.1875 2.78125 -28.9375 Z M 2.171875 -18.578125 L 2.171875 0 L 8.578125 0 L 8.578125 -18.578125 Z M 2.171875 -18.578125 "/></g></g></g><g fill="#2b2a29" fill-opacity="1"><g transform="translate(210.465764, 195.557754)"><g><path d="M 2.171875 0 L 2.171875 -18.578125 L 8.578125 -18.578125 L 8.578125 -16.625 L 8.65625 -16.625 C 10.320312 -18.289062 12.097656 -19.125 13.984375 -19.125 C 14.898438 -19.125 15.8125 -19.003906 16.71875 -18.765625 C 17.625 -18.523438 18.492188 -18.148438 19.328125 -17.640625 C 20.160156 -17.128906 20.832031 -16.410156 21.34375 -15.484375 C 21.863281 -14.554688 22.125 -13.472656 22.125 -12.234375 L 22.125 0 L 15.71875 0 L 15.71875 -10.5 C 15.71875 -11.46875 15.410156 -12.3125 14.796875 -13.03125 C 14.179688 -13.757812 13.378906 -14.125 12.390625 -14.125 C 11.421875 -14.125 10.539062 -13.75 9.75 -13 C 8.96875 -12.25 8.578125 -11.414062 8.578125 -10.5 L 8.578125 0 Z M 2.171875 0 "/></g></g></g><g fill="#2b2a29" fill-opacity="1"><g transform="translate(234.727044, 195.557754)"><g><path d="M 2.78125 -28.9375 C 3.53125 -29.6875 4.425781 -30.0625 5.46875 -30.0625 C 6.507812 -30.0625 7.398438 -29.6875 8.140625 -28.9375 C 8.890625 -28.1875 9.265625 -27.289062 9.265625 -26.25 C 9.265625 -25.21875 8.890625 -24.328125 8.140625 -23.578125 C 7.398438 -22.828125 6.507812 -22.453125 5.46875 -22.453125 C 4.425781 -22.453125 3.53125 -22.828125 2.78125 -23.578125 C 2.039062 -24.328125 1.671875 -25.21875 1.671875 -26.25 C 1.671875 -27.289062 2.039062 -28.1875 2.78125 -28.9375 Z M 2.171875 -18.578125 L 2.171875 0 L 8.578125 0 L 8.578125 -18.578125 Z M 2.171875 -18.578125 "/></g></g></g><g fill="#2b2a29" fill-opacity="1"><g transform="translate(245.988667, 195.557754)"><g><path d="M 23.6875 0 L 15.9375 0 L 11.84375 -5.25 L 7.75 0 L 0 0 L 7.9375 -9.703125 L 1.125 -18.578125 L 8.625 -18.578125 L 11.84375 -14.265625 L 15.0625 -18.578125 L 22.5625 -18.578125 L 15.75 -9.703125 Z M 23.6875 0 "/></g></g></g><g fill="#2b2a29" fill-opacity="1"><g transform="translate(269.996472, 195.557754)"><g><path d="M 2.171875 -29.875 L 13.078125 -29.875 C 16.117188 -29.875 18.578125 -29.085938 20.453125 -27.515625 C 22.335938 -25.953125 23.28125 -23.671875 23.28125 -20.671875 C 23.28125 -17.679688 22.328125 -15.332031 20.421875 -13.625 C 18.515625 -11.925781 16.066406 -11.078125 13.078125 -11.078125 L 8.984375 -11.078125 L 8.984375 0 L 2.171875 0 Z M 8.984375 -16.515625 L 10.90625 -16.515625 C 12.425781 -16.515625 13.675781 -16.820312 14.65625 -17.4375 C 15.632812 -18.050781 16.125 -19.0625 16.125 -20.46875 C 16.125 -21.882812 15.632812 -22.898438 14.65625 -23.515625 C 13.675781 -24.140625 12.425781 -24.453125 10.90625 -24.453125 L 8.984375 -24.453125 Z M 8.984375 -16.515625 "/></g></g></g><g fill="#2b2a29" fill-opacity="1"><g transform="translate(294.43881, 195.557754)"><g><path d="M 2.171875 -29.875 L 12.859375 -29.875 C 15.734375 -29.875 18.070312 -29.109375 19.875 -27.578125 C 21.6875 -26.046875 22.59375 -23.851562 22.59375 -21 C 22.59375 -18.800781 22.039062 -16.957031 20.9375 -15.46875 C 19.84375 -13.988281 18.359375 -12.945312 16.484375 -12.34375 L 26.765625 0 L 18.109375 0 L 8.984375 -11.8125 L 8.984375 0 L 2.171875 0 Z M 8.984375 -16.625 L 9.78125 -16.625 C 10.40625 -16.625 10.9375 -16.632812 11.375 -16.65625 C 11.8125 -16.6875 12.304688 -16.769531 12.859375 -16.90625 C 13.410156 -17.050781 13.851562 -17.253906 14.1875 -17.515625 C 14.53125 -17.785156 14.820312 -18.175781 15.0625 -18.6875 C 15.300781 -19.195312 15.421875 -19.8125 15.421875 -20.53125 C 15.421875 -21.257812 15.300781 -21.875 15.0625 -22.375 C 14.820312 -22.882812 14.53125 -23.269531 14.1875 -23.53125 C 13.851562 -23.800781 13.410156 -24.007812 12.859375 -24.15625 C 12.304688 -24.300781 11.8125 -24.382812 11.375 -24.40625 C 10.9375 -24.4375 10.40625 -24.453125 9.78125 -24.453125 L 8.984375 -24.453125 Z M 8.984375 -16.625 "/></g></g></g><g fill="#009846" fill-opacity="1"><g transform="translate(320.700358, 195.557754)"><g><path d="M 0.828125 -14.953125 C 0.828125 -19.273438 2.300781 -22.929688 5.25 -25.921875 C 8.195312 -28.921875 11.75 -30.421875 15.90625 -30.421875 C 20.082031 -30.421875 23.628906 -28.929688 26.546875 -25.953125 C 29.472656 -22.972656 30.9375 -19.304688 30.9375 -14.953125 C 30.9375 -10.585938 29.5 -6.910156 26.625 -3.921875 C 23.75 -0.941406 20.175781 0.546875 15.90625 0.546875 C 11.53125 0.546875 7.921875 -0.929688 5.078125 -3.890625 C 2.242188 -6.847656 0.828125 -10.535156 0.828125 -14.953125 Z M 8.1875 -14.953125 C 8.1875 -13.390625 8.425781 -11.960938 8.90625 -10.671875 C 9.394531 -9.378906 10.238281 -8.285156 11.4375 -7.390625 C 12.644531 -6.492188 14.132812 -6.046875 15.90625 -6.046875 C 18.4375 -6.046875 20.347656 -6.914062 21.640625 -8.65625 C 22.929688 -10.394531 23.578125 -12.492188 23.578125 -14.953125 C 23.578125 -17.390625 22.914062 -19.484375 21.59375 -21.234375 C 20.28125 -22.992188 18.382812 -23.875 15.90625 -23.875 C 13.4375 -23.875 11.53125 -22.992188 10.1875 -21.234375 C 8.851562 -19.484375 8.1875 -17.390625 8.1875 -14.953125 Z M 8.1875 -14.953125 "/></g></g></g></svg>