<svg xmlns="http://www.w3.org/2000/svg" xmlns:xlink="http://www.w3.org/1999/xlink" width="500" zoomAndPan="magnify" viewBox="0 0 375 374.999991" height="500" preserveAspectRatio="xMidYMid meet" version="1.0"><defs><g/><clipPath id="79ea41ca66"><path d="M 207 126 L 255.453125 126 L 255.453125 177 L 207 177 Z M 207 126 " clip-rule="nonzero"/></clipPath><clipPath id="3784cfa36c"><path d="M 215 173 L 255.453125 173 L 255.453125 185 L 215 185 Z M 215 173 " clip-rule="nonzero"/></clipPath><clipPath id="1afcf4d200"><path d="M 158 87.566406 L 217 87.566406 L 217 155 L 158 155 Z M 158 87.566406 " clip-rule="nonzero"/></clipPath><clipPath id="b14be917f2"><path d="M 178 184 L 217 184 L 217 223.316406 L 178 223.316406 Z M 178 184 " clip-rule="nonzero"/></clipPath><clipPath id="9c914cc694"><path d="M 163 215 L 178 215 L 178 223.316406 L 163 223.316406 Z M 163 215 " clip-rule="nonzero"/></clipPath><clipPath id="59452e5f23"><path d="M 119.703125 126 L 207 126 L 207 221 L 119.703125 221 Z M 119.703125 126 " clip-rule="nonzero"/></clipPath></defs><g clip-path="url(#79ea41ca66)"><path fill="#009846" d="M 217.917969 128.769531 C 218.695312 129.609375 219.140625 130.75 219.054688 131.976562 C 218.910156 134.09375 217.484375 151.335938 208.957031 161.035156 L 207.582031 166.578125 C 208.863281 169.917969 210.441406 173.117188 212.296875 176.128906 C 212.671875 175.953125 213.039062 175.777344 213.410156 175.605469 C 226.570312 169.542969 240.953125 166.710938 255.289062 167.207031 L 255.289062 133.773438 C 255.289062 129.636719 251.921875 126.265625 247.785156 126.265625 L 217.917969 126.265625 C 217.925781 127.097656 217.929688 127.929688 217.917969 128.769531 " fill-opacity="1" fill-rule="nonzero"/></g><g clip-path="url(#3784cfa36c)"><path fill="#009846" d="M 255.289062 176.945312 L 255.289062 173.382812 C 241.796875 172.925781 228.121094 175.566406 215.964844 181.164062 C 215.925781 181.1875 215.878906 181.207031 215.835938 181.226562 C 216.703125 182.339844 217.613281 183.417969 218.554688 184.453125 L 247.785156 184.453125 C 251.921875 184.453125 255.289062 181.082031 255.289062 176.945312 " fill-opacity="1" fill-rule="nonzero"/></g><g clip-path="url(#1afcf4d200)"><path fill="#009846" d="M 163.1875 110.074219 L 165.5 109.277344 C 165.988281 108.402344 166.78125 107.695312 167.796875 107.339844 L 171.121094 106.191406 C 173.3125 105.4375 175.710938 106.605469 176.46875 108.796875 C 177.226562 110.988281 176.0625 113.386719 173.867188 114.144531 L 170.542969 115.292969 C 169.453125 115.667969 168.316406 115.570312 167.351562 115.105469 L 165.179688 115.859375 C 163.953125 116.28125 163.011719 117.179688 162.523438 118.382812 C 162.042969 119.582031 162.09375 120.878906 162.679688 122.03125 C 165.328125 127.222656 169.511719 134.574219 174.953125 141.335938 C 175.972656 141.4375 176.964844 141.898438 177.707031 142.726562 C 180.207031 145.488281 186.4375 151.332031 192.953125 154.589844 L 205.851562 150.136719 C 208.972656 143.546875 210.261719 135.105469 210.511719 131.390625 C 210.585938 130.285156 211.082031 129.308594 211.824219 128.597656 C 211.929688 119.921875 210.683594 111.550781 209.558594 105.832031 C 209.308594 104.566406 208.554688 103.511719 207.433594 102.867188 C 206.308594 102.222656 205.007812 102.097656 203.78125 102.523438 L 201.613281 103.273438 C 201.136719 104.230469 200.304688 105.011719 199.214844 105.386719 L 195.890625 106.539062 C 193.699219 107.292969 191.300781 106.125 190.542969 103.933594 C 189.785156 101.742188 190.953125 99.34375 193.144531 98.585938 L 196.46875 97.4375 C 197.484375 97.085938 198.542969 97.152344 199.464844 97.542969 L 201.78125 96.738281 C 204.667969 95.742188 207.839844 96.046875 210.480469 97.5625 C 213.121094 99.082031 214.972656 101.664062 215.5625 104.652344 C 215.90625 106.410156 216.261719 108.414062 216.589844 110.585938 L 216.589844 95.074219 C 216.589844 90.9375 213.222656 87.566406 209.082031 87.566406 L 165.914062 87.566406 C 161.773438 87.566406 158.402344 90.9375 158.402344 95.074219 L 158.402344 113.449219 C 159.636719 111.910156 161.285156 110.734375 163.1875 110.074219 " fill-opacity="1" fill-rule="nonzero"/></g><g clip-path="url(#b14be917f2)"><path fill="#862264" d="M 210.292969 184.046875 C 197.363281 191.253906 186.171875 202 178.433594 214.636719 C 179.625 215.804688 180.574219 217.253906 181.152344 218.9375 C 181.636719 220.335938 181.820312 221.761719 181.746094 223.152344 L 209.082031 223.152344 C 213.222656 223.152344 216.589844 219.785156 216.589844 215.644531 L 216.589844 191.226562 C 214.332031 189.019531 212.222656 186.625 210.292969 184.046875 " fill-opacity="1" fill-rule="nonzero"/></g><g clip-path="url(#9c914cc694)"><path fill="#862264" d="M 170.65625 215.464844 C 166.734375 215.464844 163.554688 218.640625 163.554688 222.558594 C 163.554688 222.632812 163.566406 222.703125 163.566406 222.773438 C 164.285156 223.007812 165.050781 223.144531 165.84375 223.152344 C 165.570312 220.925781 166.871094 218.742188 169.074219 217.980469 C 171.601562 217.105469 174.363281 218.449219 175.242188 220.980469 C 175.488281 221.703125 175.550781 222.441406 175.464844 223.152344 L 177.722656 223.152344 C 177.738281 222.957031 177.753906 222.761719 177.753906 222.558594 C 177.753906 218.640625 174.574219 215.464844 170.65625 215.464844 " fill-opacity="1" fill-rule="nonzero"/></g><g clip-path="url(#59452e5f23)"><path fill="#862264" d="M 159.84375 220.046875 C 160.6875 216.457031 163.292969 213.355469 167.03125 212.0625 C 169.039062 211.371094 171.113281 211.289062 173.050781 211.71875 C 181.25 198.222656 193.117188 186.726562 206.855469 178.960938 C 204.882812 175.710938 203.203125 172.265625 201.839844 168.679688 L 201.820312 168.667969 L 197.230469 165.085938 C 184.535156 162.722656 172.769531 150.039062 171.347656 148.460938 C 170.523438 147.546875 170.167969 146.371094 170.265625 145.234375 C 164.941406 138.644531 160.792969 131.613281 157.988281 126.265625 L 127.214844 126.265625 C 123.074219 126.265625 119.703125 129.636719 119.703125 133.773438 L 119.703125 176.945312 C 119.703125 181.082031 123.074219 184.453125 127.214844 184.453125 L 158.402344 184.453125 L 158.402344 215.644531 C 158.402344 217.289062 158.941406 218.808594 159.84375 220.046875 " fill-opacity="1" fill-rule="nonzero"/></g><g fill="#2b2a29" fill-opacity="1"><g transform="translate(91.530922, 288.447475)"><g><path d="M 18.078125 -6.15625 C 19.109375 -6.15625 20.113281 -6.3125 21.09375 -6.625 C 22.070312 -6.9375 22.789062 -7.238281 23.25 -7.53125 L 23.9375 -8 L 26.84375 -2.203125 C 26.738281 -2.128906 26.601562 -2.03125 26.4375 -1.90625 C 26.269531 -1.789062 25.878906 -1.570312 25.265625 -1.25 C 24.648438 -0.925781 23.988281 -0.640625 23.28125 -0.390625 C 22.582031 -0.148438 21.664062 0.0625 20.53125 0.25 C 19.394531 0.445312 18.222656 0.546875 17.015625 0.546875 C 14.242188 0.546875 11.613281 -0.132812 9.125 -1.5 C 6.632812 -2.863281 4.628906 -4.738281 3.109375 -7.125 C 1.585938 -9.519531 0.828125 -12.109375 0.828125 -14.890625 C 0.828125 -16.984375 1.273438 -18.992188 2.171875 -20.921875 C 3.066406 -22.859375 4.253906 -24.515625 5.734375 -25.890625 C 7.222656 -27.265625 8.957031 -28.363281 10.9375 -29.1875 C 12.914062 -30.007812 14.941406 -30.421875 17.015625 -30.421875 C 18.953125 -30.421875 20.734375 -30.191406 22.359375 -29.734375 C 23.992188 -29.273438 25.148438 -28.816406 25.828125 -28.359375 L 26.84375 -27.671875 L 23.9375 -21.875 C 23.769531 -22.019531 23.515625 -22.191406 23.171875 -22.390625 C 22.835938 -22.597656 22.160156 -22.867188 21.140625 -23.203125 C 20.128906 -23.546875 19.109375 -23.71875 18.078125 -23.71875 C 16.429688 -23.71875 14.957031 -23.453125 13.65625 -22.921875 C 12.351562 -22.390625 11.320312 -21.6875 10.5625 -20.8125 C 9.800781 -19.945312 9.21875 -19.015625 8.8125 -18.015625 C 8.414062 -17.015625 8.21875 -15.992188 8.21875 -14.953125 C 8.21875 -12.679688 9.066406 -10.644531 10.765625 -8.84375 C 12.472656 -7.050781 14.910156 -6.15625 18.078125 -6.15625 Z M 18.078125 -6.15625 "/></g></g></g><g fill="#2b2a29" fill-opacity="1"><g transform="translate(119.123587, 288.447475)"><g><path d="M 2.171875 0 L 2.171875 -31.140625 L 8.578125 -31.140625 L 8.578125 0 Z M 2.171875 0 "/></g></g></g><g fill="#2b2a29" fill-opacity="1"><g transform="translate(130.20415, 288.447475)"><g><path d="M 2.78125 -28.9375 C 3.53125 -29.6875 4.425781 -30.0625 5.46875 -30.0625 C 6.507812 -30.0625 7.398438 -29.6875 8.140625 -28.9375 C 8.890625 -28.1875 9.265625 -27.289062 9.265625 -26.25 C 9.265625 -25.21875 8.890625 -24.328125 8.140625 -23.578125 C 7.398438 -22.828125 6.507812 -22.453125 5.46875 -22.453125 C 4.425781 -22.453125 3.53125 -22.828125 2.78125 -23.578125 C 2.039062 -24.328125 1.671875 -25.21875 1.671875 -26.25 C 1.671875 -27.289062 2.039062 -28.1875 2.78125 -28.9375 Z M 2.171875 -18.578125 L 2.171875 0 L 8.578125 0 L 8.578125 -18.578125 Z M 2.171875 -18.578125 "/></g></g></g><g fill="#2b2a29" fill-opacity="1"><g transform="translate(141.465769, 288.447475)"><g><path d="M 2.171875 0 L 2.171875 -18.578125 L 8.578125 -18.578125 L 8.578125 -16.625 L 8.65625 -16.625 C 10.320312 -18.289062 12.097656 -19.125 13.984375 -19.125 C 14.898438 -19.125 15.8125 -19.003906 16.71875 -18.765625 C 17.625 -18.523438 18.492188 -18.148438 19.328125 -17.640625 C 20.160156 -17.128906 20.832031 -16.410156 21.34375 -15.484375 C 21.863281 -14.554688 22.125 -13.472656 22.125 -12.234375 L 22.125 0 L 15.71875 0 L 15.71875 -10.5 C 15.71875 -11.46875 15.410156 -12.3125 14.796875 -13.03125 C 14.179688 -13.757812 13.378906 -14.125 12.390625 -14.125 C 11.421875 -14.125 10.539062 -13.75 9.75 -13 C 8.96875 -12.25 8.578125 -11.414062 8.578125 -10.5 L 8.578125 0 Z M 2.171875 0 "/></g></g></g><g fill="#2b2a29" fill-opacity="1"><g transform="translate(165.727049, 288.447475)"><g><path d="M 2.78125 -28.9375 C 3.53125 -29.6875 4.425781 -30.0625 5.46875 -30.0625 C 6.507812 -30.0625 7.398438 -29.6875 8.140625 -28.9375 C 8.890625 -28.1875 9.265625 -27.289062 9.265625 -26.25 C 9.265625 -25.21875 8.890625 -24.328125 8.140625 -23.578125 C 7.398438 -22.828125 6.507812 -22.453125 5.46875 -22.453125 C 4.425781 -22.453125 3.53125 -22.828125 2.78125 -23.578125 C 2.039062 -24.328125 1.671875 -25.21875 1.671875 -26.25 C 1.671875 -27.289062 2.039062 -28.1875 2.78125 -28.9375 Z M 2.171875 -18.578125 L 2.171875 0 L 8.578125 0 L 8.578125 -18.578125 Z M 2.171875 -18.578125 "/></g></g></g><g fill="#2b2a29" fill-opacity="1"><g transform="translate(176.988672, 288.447475)"><g><path d="M 23.6875 0 L 15.9375 0 L 11.84375 -5.25 L 7.75 0 L 0 0 L 7.9375 -9.703125 L 1.125 -18.578125 L 8.625 -18.578125 L 11.84375 -14.265625 L 15.0625 -18.578125 L 22.5625 -18.578125 L 15.75 -9.703125 Z M 23.6875 0 "/></g></g></g><g fill="#2b2a29" fill-opacity="1"><g transform="translate(200.996477, 288.447475)"><g><path d="M 2.171875 -29.875 L 13.078125 -29.875 C 16.117188 -29.875 18.578125 -29.085938 20.453125 -27.515625 C 22.335938 -25.953125 23.28125 -23.671875 23.28125 -20.671875 C 23.28125 -17.679688 22.328125 -15.332031 20.421875 -13.625 C 18.515625 -11.925781 16.066406 -11.078125 13.078125 -11.078125 L 8.984375 -11.078125 L 8.984375 0 L 2.171875 0 Z M 8.984375 -16.515625 L 10.90625 -16.515625 C 12.425781 -16.515625 13.675781 -16.820312 14.65625 -17.4375 C 15.632812 -18.050781 16.125 -19.0625 16.125 -20.46875 C 16.125 -21.882812 15.632812 -22.898438 14.65625 -23.515625 C 13.675781 -24.140625 12.425781 -24.453125 10.90625 -24.453125 L 8.984375 -24.453125 Z M 8.984375 -16.515625 "/></g></g></g><g fill="#2b2a29" fill-opacity="1"><g transform="translate(225.438815, 288.447475)"><g><path d="M 2.171875 -29.875 L 12.859375 -29.875 C 15.734375 -29.875 18.070312 -29.109375 19.875 -27.578125 C 21.6875 -26.046875 22.59375 -23.851562 22.59375 -21 C 22.59375 -18.800781 22.039062 -16.957031 20.9375 -15.46875 C 19.84375 -13.988281 18.359375 -12.945312 16.484375 -12.34375 L 26.765625 0 L 18.109375 0 L 8.984375 -11.8125 L 8.984375 0 L 2.171875 0 Z M 8.984375 -16.625 L 9.78125 -16.625 C 10.40625 -16.625 10.9375 -16.632812 11.375 -16.65625 C 11.8125 -16.6875 12.304688 -16.769531 12.859375 -16.90625 C 13.410156 -17.050781 13.851562 -17.253906 14.1875 -17.515625 C 14.53125 -17.785156 14.820312 -18.175781 15.0625 -18.6875 C 15.300781 -19.195312 15.421875 -19.8125 15.421875 -20.53125 C 15.421875 -21.257812 15.300781 -21.875 15.0625 -22.375 C 14.820312 -22.882812 14.53125 -23.269531 14.1875 -23.53125 C 13.851562 -23.800781 13.410156 -24.007812 12.859375 -24.15625 C 12.304688 -24.300781 11.8125 -24.382812 11.375 -24.40625 C 10.9375 -24.4375 10.40625 -24.453125 9.78125 -24.453125 L 8.984375 -24.453125 Z M 8.984375 -16.625 "/></g></g></g><g fill="#009846" fill-opacity="1"><g transform="translate(251.700363, 288.447475)"><g><path d="M 0.828125 -14.953125 C 0.828125 -19.273438 2.300781 -22.929688 5.25 -25.921875 C 8.195312 -28.921875 11.75 -30.421875 15.90625 -30.421875 C 20.082031 -30.421875 23.628906 -28.929688 26.546875 -25.953125 C 29.472656 -22.972656 30.9375 -19.304688 30.9375 -14.953125 C 30.9375 -10.585938 29.5 -6.910156 26.625 -3.921875 C 23.75 -0.941406 20.175781 0.546875 15.90625 0.546875 C 11.53125 0.546875 7.921875 -0.929688 5.078125 -3.890625 C 2.242188 -6.847656 0.828125 -10.535156 0.828125 -14.953125 Z M 8.1875 -14.953125 C 8.1875 -13.390625 8.425781 -11.960938 8.90625 -10.671875 C 9.394531 -9.378906 10.238281 -8.285156 11.4375 -7.390625 C 12.644531 -6.492188 14.132812 -6.046875 15.90625 -6.046875 C 18.4375 -6.046875 20.347656 -6.914062 21.640625 -8.65625 C 22.929688 -10.394531 23.578125 -12.492188 23.578125 -14.953125 C 23.578125 -17.390625 22.914062 -19.484375 21.59375 -21.234375 C 20.28125 -22.992188 18.382812 -23.875 15.90625 -23.875 C 13.4375 -23.875 11.53125 -22.992188 10.1875 -21.234375 C 8.851562 -19.484375 8.1875 -17.390625 8.1875 -14.953125 Z M 8.1875 -14.953125 "/></g></g></g></svg>